<svg width="1538" height="112" viewBox="0 0 1538 112" fill="none" xmlns="http://www.w3.org/2000/svg">
<path d="M57.312 108.432L32.832 69.984C32.064 70.08 30.912 70.128 29.376 70.128H13.968V108.432H0V4.32H27.792C34.896 4.32 41.232 5.568 46.8 8.064C52.368 10.56 56.736 14.256 59.904 19.152C63.072 23.952 64.656 29.76 64.656 36.576C64.656 43.008 63.216 48.912 60.336 54.288C57.552 59.664 53.232 63.744 47.376 66.528L73.584 108.432H57.312ZM29.088 56.592C36.576 56.592 41.952 54.624 45.216 50.688C48.576 46.752 50.256 42.24 50.256 37.152C50.256 34.08 49.536 31.056 48.096 28.08C46.752 25.104 44.544 22.656 41.472 20.736C38.496 18.72 34.704 17.712 30.096 17.712H13.968V56.592H29.088Z" fill="#F4BCBB"/>
<path d="M155.543 4.32V17.712H101.831V49.392H149.783V62.784H101.831V94.896H157.559V108.432H87.8625V4.32H155.543Z" fill="#F4BCBB"/>
<path d="M221.109 54.432C227.061 56.736 231.765 60.048 235.221 64.368C238.677 68.592 240.405 73.536 240.405 79.2C240.405 85.824 238.773 91.344 235.509 95.76C232.341 100.08 228.117 103.296 222.837 105.408C217.653 107.424 211.941 108.432 205.701 108.432H174.741V4.32H201.669C212.325 4.32 220.581 6.528 226.437 10.944C232.293 15.264 235.221 21.792 235.221 30.528C235.221 36 233.973 40.8 231.477 44.928C229.077 48.96 225.621 52.128 221.109 54.432ZM188.709 49.824H204.549C209.925 49.824 213.957 48.288 216.645 45.216C219.429 42.144 220.821 38.208 220.821 33.408C220.821 28.128 219.189 24.192 215.925 21.6C212.661 19.008 208.101 17.712 202.245 17.712H188.709V49.824ZM205.125 95.472C211.173 95.472 216.165 94.128 220.101 91.44C224.037 88.656 226.005 84.624 226.005 79.344C226.005 73.872 223.845 69.84 219.525 67.248C215.301 64.656 210.165 63.36 204.117 63.36H188.709V95.472H205.125Z" fill="#F4BCBB"/>
<path d="M324.377 4.32V17.712H270.665V49.392H318.617V62.784H270.665V94.896H326.393V108.432H256.697V4.32H324.377Z" fill="#F4BCBB"/>
<path d="M357.399 51.408L359.127 48.672L401.751 4.32H419.751L376.695 48.96L422.199 108.432H404.487L366.471 57.888L357.687 66.384L357.831 108.432H343.575V4.32H357.831V46.224L357.399 51.408Z" fill="#F4BCBB"/>
<path d="M488.826 81.072H448.794L437.706 108.432H423.882L469.386 0H470.25L515.754 108.432H499.626L488.826 81.072ZM484.074 68.976L469.242 30.96L453.834 68.976H484.074Z" fill="#F4BCBB"/>
<path d="M610.531 108.432H596.563V62.784H541.987V108.432H528.019V4.32H541.987V49.392H596.563V4.32H610.531V108.432Z" fill="#F4BCBB"/>
<path d="M754.193 108.432H740.225V62.784H685.649V108.432H671.681V4.32H685.649V49.392H740.225V4.32H754.193V108.432Z" fill="#F4BCBB"/>
<path d="M844.661 4.32V17.712H790.949V49.392H838.901V62.784H790.949V94.896H846.677V108.432H776.981V4.32H844.661Z" fill="#F4BCBB"/>
<path d="M954.579 4.32V111.888H954.147L877.683 34.272L877.971 108.432H863.859V1.15199H864.579L940.899 79.632L940.611 4.32H954.579Z" fill="#F4BCBB"/>
<path d="M977.316 4.32H1005.83C1018.79 4.32 1029.49 6.912 1037.94 12.096C1046.48 17.184 1052.68 23.808 1056.52 31.968C1060.45 40.032 1062.42 48.576 1062.42 57.6C1062.42 67.68 1060.07 76.608 1055.36 84.384C1050.66 92.064 1044.37 98.016 1036.5 102.24C1028.63 106.368 1020.08 108.432 1010.87 108.432H977.316V4.32ZM1008.13 94.896C1015.81 94.896 1022.68 93.408 1028.72 90.432C1034.77 87.36 1039.48 82.944 1042.84 77.184C1046.29 71.424 1048.02 64.56 1048.02 56.592C1048.02 48.432 1046.24 41.424 1042.69 35.568C1039.14 29.712 1034.39 25.296 1028.44 22.32C1022.58 19.248 1016.24 17.712 1009.43 17.712H991.284V94.896H1008.13Z" fill="#F4BCBB"/>
<path d="M1146.36 4.32V17.712H1092.65V49.392H1140.6V62.784H1092.65V94.896H1148.37V108.432H1078.68V4.32H1146.36Z" fill="#F4BCBB"/>
<path d="M1222.87 108.432L1198.39 69.984C1197.62 70.08 1196.47 70.128 1194.93 70.128H1179.52V108.432H1165.56V4.32H1193.35C1200.45 4.32 1206.79 5.568 1212.36 8.064C1217.92 10.56 1222.29 14.256 1225.46 19.152C1228.63 23.952 1230.21 29.76 1230.21 36.576C1230.21 43.008 1228.77 48.912 1225.89 54.288C1223.11 59.664 1218.79 63.744 1212.93 66.528L1239.14 108.432H1222.87ZM1194.64 56.592C1202.13 56.592 1207.51 54.624 1210.77 50.688C1214.13 46.752 1215.81 42.24 1215.81 37.152C1215.81 34.08 1215.09 31.056 1213.65 28.08C1212.31 25.104 1210.1 22.656 1207.03 20.736C1204.05 18.72 1200.26 17.712 1195.65 17.712H1179.52V56.592H1194.64Z" fill="#F4BCBB"/>
<path d="M1307.27 22.896C1303.53 20.88 1299.55 19.248 1295.32 18C1291.1 16.752 1287.11 16.128 1283.37 16.128C1277.71 16.128 1273.19 17.424 1269.83 20.016C1266.57 22.512 1264.94 25.968 1264.94 30.384C1264.94 34.704 1266.86 38.256 1270.7 41.04C1274.63 43.728 1280.2 46.416 1287.4 49.104C1292.78 51.024 1297.29 53.136 1300.94 55.44C1304.68 57.648 1307.75 60.768 1310.15 64.8C1312.65 68.736 1313.9 73.776 1313.9 79.92C1313.9 85.488 1312.51 90.528 1309.72 95.04C1306.94 99.552 1302.95 103.104 1297.77 105.696C1292.68 108.288 1286.68 109.584 1279.77 109.584C1273.34 109.584 1267.15 108.576 1261.19 106.56C1255.24 104.448 1250.01 101.808 1245.5 98.64L1251.69 87.552C1255.24 90.24 1259.51 92.544 1264.51 94.464C1269.5 96.288 1274.15 97.2 1278.47 97.2C1284.04 97.2 1288.89 95.76 1293.02 92.88C1297.24 90 1299.35 85.728 1299.35 80.064C1299.35 75.264 1297.58 71.472 1294.03 68.688C1290.57 65.808 1285.67 63.12 1279.34 60.624C1273.48 58.416 1268.59 56.256 1264.65 54.144C1260.81 52.032 1257.5 49.152 1254.71 45.504C1251.93 41.76 1250.54 37.104 1250.54 31.536C1250.54 23.376 1253.37 16.8 1259.03 11.808C1264.79 6.72 1272.23 4.032 1281.35 3.74399C1292.59 3.74399 1303 6.528 1312.6 12.096L1307.27 22.896Z" fill="#F4BCBB"/>
<path d="M1323.55 56.448C1323.55 46.944 1325.95 38.112 1330.75 29.952C1335.55 21.792 1341.98 15.312 1350.05 10.512C1358.21 5.616 1367.09 3.168 1376.69 3.168C1386.19 3.168 1395.02 5.616 1403.18 10.512C1411.34 15.312 1417.82 21.792 1422.62 29.952C1427.52 38.112 1429.97 46.944 1429.97 56.448C1429.97 66.048 1427.57 74.928 1422.77 83.088C1417.97 91.248 1411.44 97.728 1403.18 102.528C1395.02 107.232 1386.19 109.584 1376.69 109.584C1367.09 109.584 1358.21 107.232 1350.05 102.528C1341.89 97.824 1335.41 91.44 1330.61 83.376C1325.9 75.216 1323.55 66.24 1323.55 56.448ZM1337.95 56.592C1337.95 63.696 1339.68 70.272 1343.14 76.32C1346.59 82.368 1351.3 87.168 1357.25 90.72C1363.3 94.272 1369.87 96.048 1376.98 96.048C1384.08 96.048 1390.56 94.32 1396.42 90.864C1402.37 87.312 1407.02 82.512 1410.38 76.464C1413.84 70.32 1415.57 63.648 1415.57 56.448C1415.57 49.248 1413.84 42.576 1410.38 36.432C1406.93 30.288 1402.22 25.44 1396.27 21.888C1390.32 18.336 1383.79 16.56 1376.69 16.56C1369.58 16.56 1363.06 18.384 1357.1 22.032C1351.15 25.584 1346.45 30.432 1342.99 36.576C1339.63 42.72 1337.95 49.392 1337.95 56.592Z" fill="#F4BCBB"/>
<path d="M1537.02 4.32V111.888H1536.59L1460.12 34.272L1460.41 108.432H1446.3V1.15199H1447.02L1523.34 79.632L1523.05 4.32H1537.02Z" fill="#F4BCBB"/>
</svg>
