<svg width="175" height="105" viewBox="0 0 175 105" fill="none" xmlns="http://www.w3.org/2000/svg">
<path d="M57.712 105L34.096 68.568H32.368H17.248V105H0.4V0.167994H29.92C41.632 0.167994 50.992 3.144 58 9.096C65.104 15.048 68.656 23.304 68.656 33.864C68.656 40.296 67.264 46.296 64.48 51.864C61.792 57.336 57.52 61.56 51.664 64.536L77.152 105H57.712ZM17.248 52.44H32.224C38.944 52.44 43.792 50.616 46.768 46.968C49.84 43.224 51.376 39.048 51.376 34.44C51.376 31.752 50.8 29.064 49.648 26.376C48.496 23.592 46.528 21.24 43.744 19.32C40.96 17.304 37.312 16.296 32.8 16.296H17.248V52.44ZM174.917 105H158.069V60.36H106.517V105H89.6688V0.167994H106.517V44.376H158.069V0.167994H174.917V105Z" fill="#F4BCBB"/>
</svg>
